<svg width="24" height="24" viewBox="0 0 24 24" fill="none" xmlns="http://www.w3.org/2000/svg">
<path fill-rule="evenodd" clip-rule="evenodd" d="M7.17092 5.00831C7.17092 6.21671 6.19132 7.19631 4.98292 7.19631C3.77452 7.19631 2.79492 6.21671 2.79492 5.00831C2.79492 3.79991 3.77452 2.82031 4.98292 2.82031C6.19132 2.82031 7.17092 3.79991 7.17092 5.00831ZM9.23697 20.9937V8.85469H12.855V10.5147H12.906C13.409 9.56169 14.639 8.55469 16.474 8.55469C20.296 8.55469 21 11.0677 21 14.3377V20.9947H17.229V15.0907C17.229 13.6837 17.205 11.8727 15.268 11.8727C13.304 11.8727 13.006 13.4067 13.006 14.9907V20.9937H9.23697ZM6.86997 8.85469H3.09497V20.9937H6.86997V8.85469Z" fill="url(#paint0_linear_178_3914)"/>
<defs>
<linearGradient id="paint0_linear_178_3914" x1="11.8974" y1="2.82031" x2="11.8974" y2="20.9947" gradientUnits="userSpaceOnUse">
<stop stop-color="white"/>
<stop offset="1" stop-color="white" stop-opacity="0.7"/>
</linearGradient>
</defs>
</svg>
