<svg width="22" height="22" viewBox="0 0 22 22" fill="none" xmlns="http://www.w3.org/2000/svg">
<path d="M17.9574 6.13315C17.0436 5.93221 16.217 5.44697 15.5961 4.74705C14.9753 4.04714 14.5921 3.16853 14.5016 2.23732V1.83398H11.3391V14.3648C11.3397 14.9208 11.1654 15.463 10.8408 15.9144C10.5162 16.3658 10.0578 16.7037 9.53053 16.8801C9.00325 17.0566 8.43382 17.0626 7.90291 16.8975C7.372 16.7323 6.90651 16.4042 6.57239 15.9598C6.27305 15.5664 6.08975 15.0971 6.04322 14.605C5.9967 14.1128 6.08879 13.6175 6.3091 13.175C6.52941 12.7325 6.86914 12.3604 7.28988 12.1009C7.71061 11.8414 8.19556 11.7048 8.68989 11.7065C8.96328 11.7049 9.2353 11.7451 9.49656 11.8257V8.61732C9.19253 8.57967 8.88615 8.56435 8.57989 8.57149C7.45176 8.60163 6.3569 8.96009 5.42938 9.60298C4.50187 10.2459 3.78195 11.1453 3.3578 12.1911C2.93365 13.2369 2.82366 14.3837 3.04131 15.491C3.25896 16.5983 3.79481 17.6182 4.58322 18.4257C5.39125 19.2472 6.42526 19.8099 7.55386 20.0425C8.68246 20.275 9.85471 20.1668 10.9217 19.7315C11.9886 19.2963 12.9021 18.5537 13.546 17.5981C14.19 16.6426 14.5354 15.5171 14.5382 14.3648V7.94815C15.8137 8.85927 17.3432 9.34666 18.9107 9.34148V6.22482C18.6028 6.22609 18.2956 6.19537 17.9941 6.13315H17.9574Z" fill="url(#paint0_linear_178_3928)"/>
<defs>
<linearGradient id="paint0_linear_178_3928" x1="10.9215" y1="1.83398" x2="10.9215" y2="20.162" gradientUnits="userSpaceOnUse">
<stop stop-color="white"/>
<stop offset="1" stop-color="white" stop-opacity="0.7"/>
</linearGradient>
</defs>
</svg>
