<svg width="24" height="24" viewBox="0 0 24 24" fill="none" xmlns="http://www.w3.org/2000/svg">
<path d="M4.4042 3C3.7572 3 3.37795 3.72877 3.74795 4.25977L9.73623 12.8184L3.72451 19.8457C3.33551 20.2997 3.65776 21 4.25576 21H4.91982C5.21282 21 5.49154 20.8714 5.68154 20.6484L10.9198 14.5117L14.8632 20.1465C15.2382 20.6805 15.8499 21 16.5019 21H19.8358C20.4828 21 20.8621 20.2722 20.4921 19.7422L14.1737 10.6992L19.9003 3.99023C20.2323 3.60023 19.9553 3 19.4433 3H18.5976C18.3056 3 18.0278 3.12761 17.8378 3.34961L12.996 9.00977L9.39443 3.85547C9.02043 3.31947 8.40976 3 7.75576 3H4.4042Z" fill="url(#paint0_linear_178_3931)"/>
<defs>
<linearGradient id="paint0_linear_178_3931" x1="12.096" y1="3" x2="12.096" y2="21" gradientUnits="userSpaceOnUse">
<stop stop-color="white"/>
<stop offset="1" stop-color="white" stop-opacity="0.7"/>
</linearGradient>
</defs>
</svg>
